<?xml version="1.0" encoding="UTF-8"?>
<svg id="Capa_1" data-name="Capa 1" xmlns="http://www.w3.org/2000/svg" xmlns:xlink="http://www.w3.org/1999/xlink" viewBox="0 0 694 168">
  <defs>
    <style>
      .cls-1 {
        fill: url(#Degradado_sin_nombre_6);
      }

      .cls-2 {
        fill: #17025e;
      }

      .cls-3 {
        fill: url(#Degradado_sin_nombre_21);
      }
    </style>
    <linearGradient id="Degradado_sin_nombre_21" data-name="Degradado sin nombre 21" x1="31.85" y1="54.6" x2="60.75" y2="135.44" gradientUnits="userSpaceOnUse">
      <stop offset="0" stop-color="#4932ec"/>
      <stop offset="1" stop-color="#3221aa"/>
    </linearGradient>
    <linearGradient id="Degradado_sin_nombre_6" data-name="Degradado sin nombre 6" x1="79.24" y1="84" x2="172.7" y2="84" gradientUnits="userSpaceOnUse">
      <stop offset="0" stop-color="#b0aaf2"/>
      <stop offset="1" stop-color="#4438d6"/>
    </linearGradient>
  </defs>
  <g>
    <path class="cls-3" d="M63.24,67.7l27.63,87.83h-45.28c-2.74,0-5.19-1.99-6.13-4.97L14.2,70.28c-.77-2.46.8-5.07,3.07-5.07h42.91c1.37,0,2.6.99,3.07,2.48Z"/>
    <path class="cls-1" d="M172.5,17.54l-41.85,133.02c-.94,2.98-3.39,4.97-6.13,4.97h-45.28L123.46,14.96c.47-1.49,1.69-2.48,3.07-2.48h42.91c2.27,0,3.84,2.6,3.07,5.07Z"/>
  </g>
  <g>
    <path class="cls-2" d="M199.4,62.71h10.82l17.12,50.37,17.29-50.37h10.55l-21.73,62.73h-12.24l-21.82-62.73Z"/>
    <path class="cls-2" d="M298.82,117.02v8.42h-5.06c-2.96,0-5.08-.63-6.39-1.88s-1.95-3.08-1.95-5.47c-3.43,5.26-8.42,7.89-14.99,7.89-5.09,0-9.17-1.19-12.24-3.58-3.07-2.39-4.61-5.68-4.61-9.86,0-4.72,1.65-8.35,4.97-10.89,3.31-2.54,8.13-3.81,14.46-3.81h11.44v-2.78c0-2.57-.89-4.58-2.66-6.05-1.77-1.46-4.23-2.2-7.36-2.2-2.78,0-5.07.61-6.87,1.84-1.8,1.23-2.88,2.85-3.24,4.88h-9.4c.47-4.6,2.48-8.17,6.03-10.71,3.55-2.54,8.19-3.81,13.92-3.81,6.09,0,10.79,1.43,14.1,4.3,3.31,2.87,4.97,6.99,4.97,12.37v18.1c0,2.15,1,3.23,3.02,3.23h1.86ZM284.45,105.01h-11.88c-2.96,0-5.23.58-6.83,1.75s-2.39,2.88-2.39,5.15c0,1.97.75,3.56,2.26,4.75,1.51,1.2,3.56,1.79,6.16,1.79,3.96,0,7.05-1.08,9.27-3.23,2.22-2.15,3.35-5.02,3.41-8.6v-1.61Z"/>
    <path class="cls-2" d="M342.06,84.04c3.4,3.35,5.1,8.72,5.1,16.13v25.27h-9.67v-24.73c0-4.36-.92-7.68-2.75-9.95-1.83-2.27-4.52-3.41-8.07-3.41-3.79,0-6.76,1.33-8.91,3.99-2.16,2.66-3.24,6.32-3.24,10.98v23.12h-9.58v-45.88h8.34l1.06,6c3.43-4.36,8.28-6.54,14.54-6.54,5.38,0,9.77,1.67,13.17,5.02Z"/>
    <path class="cls-2" d="M359.66,88.07h-7.89v-8.51h7.89v-12.82h9.67v12.82h10.91v8.51h-10.91v23.93c0,1.79.36,3.06,1.06,3.81.71.75,1.92,1.12,3.64,1.12h7.27v8.51h-9.22c-4.32,0-7.47-1.02-9.45-3.05-1.98-2.03-2.97-5.17-2.97-9.41v-24.91Z"/>
    <path class="cls-2" d="M430.26,117.02v8.42h-5.06c-2.96,0-5.08-.63-6.39-1.88s-1.95-3.08-1.95-5.47c-3.43,5.26-8.42,7.89-14.99,7.89-5.09,0-9.17-1.19-12.24-3.58-3.07-2.39-4.61-5.68-4.61-9.86,0-4.72,1.65-8.35,4.97-10.89,3.31-2.54,8.13-3.81,14.46-3.81h11.44v-2.78c0-2.57-.89-4.58-2.66-6.05-1.77-1.46-4.23-2.2-7.36-2.2-2.78,0-5.07.61-6.87,1.84-1.8,1.23-2.88,2.85-3.24,4.88h-9.4c.47-4.6,2.48-8.17,6.03-10.71,3.55-2.54,8.19-3.81,13.92-3.81,6.09,0,10.79,1.43,14.1,4.3,3.31,2.87,4.97,6.99,4.97,12.37v18.1c0,2.15,1,3.23,3.02,3.23h1.86ZM415.89,105.01h-11.88c-2.96,0-5.23.58-6.83,1.75s-2.39,2.88-2.39,5.15c0,1.97.75,3.56,2.26,4.75,1.51,1.2,3.56,1.79,6.16,1.79,3.96,0,7.05-1.08,9.27-3.23,2.22-2.15,3.35-5.02,3.41-8.6v-1.61Z"/>
    <path class="cls-2" d="M480.45,79.56v44c0,6.45-1.89,11.46-5.68,15.01-3.78,3.55-9.64,5.33-17.56,5.33-6.15,0-11.15-1.39-14.99-4.17-3.84-2.78-5.97-6.71-6.39-11.78h9.76c.59,2.57,1.95,4.55,4.08,5.96,2.13,1.4,4.88,2.11,8.25,2.11,8.69,0,13.04-4.27,13.04-12.82v-5.11c-3.31,5.02-8.25,7.53-14.81,7.53-4.14,0-7.84-.94-11.09-2.82-3.25-1.88-5.79-4.57-7.63-8.07-1.83-3.5-2.75-7.63-2.75-12.41s.93-8.66,2.79-12.19c1.86-3.52,4.42-6.26,7.67-8.2,3.25-1.94,6.92-2.91,11-2.91,3.43,0,6.39.69,8.87,2.06,2.48,1.38,4.49,3.26,6.03,5.65l1.06-7.17h8.34ZM467.33,113.3c2.42-2.78,3.64-6.38,3.64-10.8s-1.21-8.23-3.64-11.07c-2.43-2.84-5.62-4.26-9.58-4.26s-7.15,1.4-9.58,4.21c-2.42,2.81-3.64,6.45-3.64,10.93s1.21,8.13,3.64,10.93c2.42,2.81,5.62,4.21,9.58,4.21s7.15-1.39,9.58-4.17Z"/>
    <path class="cls-2" d="M491.85,90.18c1.86-3.55,4.46-6.3,7.8-8.25,3.34-1.94,7.17-2.91,11.49-2.91s8.23.9,11.57,2.69c3.34,1.79,5.97,4.33,7.89,7.62,1.92,3.29,2.91,7.14,2.97,11.56,0,1.2-.09,2.42-.27,3.67h-34.23v.54c.24,4,1.48,7.17,3.73,9.5,2.25,2.33,5.23,3.5,8.96,3.5,2.96,0,5.44-.7,7.45-2.11,2.01-1.4,3.34-3.39,3.99-5.96h9.58c-.83,4.66-3.06,8.48-6.7,11.47-3.64,2.99-8.17,4.48-13.61,4.48-4.73,0-8.86-.97-12.37-2.91-3.52-1.94-6.24-4.67-8.16-8.2-1.92-3.52-2.88-7.62-2.88-12.28s.93-8.86,2.79-12.41ZM523.82,97.48c-.41-3.34-1.73-5.96-3.95-7.84-2.22-1.88-5.01-2.82-8.38-2.82-3.13,0-5.84.97-8.12,2.91-2.28,1.94-3.59,4.53-3.95,7.75h24.39Z"/>
    <path class="cls-2" d="M539.17,62.71l10.64-.09,13.21,49.74,13.84-49.65h9.67l13.39,49.65,13.39-49.65h10.38l-17.74,62.73h-11.97l-12.68-46.15-12.42,46.15h-11.97l-17.74-62.73Z"/>
    <path class="cls-2" d="M656.41,62.71c4.26,0,8.01.82,11.26,2.46,3.25,1.64,5.76,3.97,7.54,6.99,1.77,3.02,2.66,6.53,2.66,10.53s-.89,7.51-2.66,10.53c-1.77,3.02-4.29,5.35-7.54,6.99-3.25,1.64-7.01,2.46-11.26,2.46h-14.28v22.76h-10.2v-62.73h24.48ZM642.13,93.72h13.39c3.67,0,6.58-1,8.74-3,2.16-2,3.24-4.67,3.24-8.02s-1.06-6.09-3.19-8.07c-2.13-1.97-5.03-2.96-8.69-2.96h-13.48v22.05Z"/>
  </g>
</svg>